# xmcd
#
# Track frame offsets:
#	150
#	12919
#	29684
#	44762
#	59946
#	73704
#	90605
#	102351
#	114532
#	129181
#	146518
#	157090
#	168983
#	181908
#	195582
#	208823
#	224460
#	236980
#	254694
#	267500
#	278889
#	293856
#	311066
#	330222
#
# Disc length: 4568 seconds
#
# Revision: 1
# Processed by: cddbd v1.4PL0 Copyright (c) Steve Scherf et al.
# Submitted via: audiograbber 1.80
#
DISCID=8211d618
DTITLE=Cat Stevens - Remember
DYEAR=1900
DGENRE=
TTITLE0=Moonshadow
TTITLE1=Father And Son
TTITLE2=Morning Has Broken
TTITLE3=Wild World
TTITLE4=The First Cut Is The Deepest
TTITLE5=Lady D'arbanville
TTITLE6=Oh Very Young
TTITLE7=Matthew And Son
TTITLE8=Sitting
TTITLE9=Hard Headed Woman
TTITLE10=I Love My Dog
TTITLE11=Rubylove
TTITLE12=Don't Be Shy
TTITLE13=Can't Keep It In
TTITLE14=Here Comes My Baby
TTITLE15=Into White
TTITLE16=(Remember The Days Of The) Old School Yard
TTITLE17=Where Do The Children Play
TTITLE18=Land O'Freelove and Goodbye
TTITLE19=Another Saturday Night
TTITLE20=The Foreigner Suite (excerpt)
TTITLE21=Just Another Night
TTITLE22=Peace Train
TTITLE23=If You Want To Sing Out, Sing Out
EXTD=
EXTT0=
EXTT1=
EXTT2=
EXTT3=
EXTT4=
EXTT5=
EXTT6=
EXTT7=
EXTT8=
EXTT9=
EXTT10=
EXTT11=
EXTT12=
EXTT13=
EXTT14=
EXTT15=
EXTT16=
EXTT17=
EXTT18=
EXTT19=
EXTT20=
EXTT21=
EXTT22=
EXTT23=
PLAYORDER=
